<svg xmlns="http://www.w3.org/2000/svg" width="46" height="46" fill="none"><path fill="#020A0F" d="M17.953 4.313h10.094c2.093 0 3.752 0 5.088.109 1.369.11 2.525.345 3.583.881a9.105 9.105 0 0 1 3.977 3.981c.538 1.054.772 2.212.883 3.58.11 1.337.11 2.996.11 5.09v10.093c0 2.093 0 3.752-.11 5.088-.11 1.369-.345 2.525-.881 3.583a9.105 9.105 0 0 1-3.98 3.977c-1.057.538-2.213.772-3.582.883-1.336.11-2.995.11-5.088.11H17.953c-2.093 0-3.752 0-5.088-.11-1.369-.11-2.525-.345-3.58-.881a9.104 9.104 0 0 1-3.98-3.98c-.538-1.057-.772-2.213-.883-3.582-.11-1.336-.11-2.995-.11-5.088V17.953c0-2.093 0-3.752.11-5.088.11-1.369.345-2.525.881-3.58a9.104 9.104 0 0 1 3.981-3.98c1.054-.538 2.212-.772 3.58-.883 1.337-.11 2.996-.11 5.09-.11Zm-1.603 11.92a1.437 1.437 0 0 0-2.031 2.032L19.052 23l-4.734 4.734a1.439 1.439 0 1 0 2.031 2.032l5.75-5.75a1.437 1.437 0 0 0 0-2.032l-5.75-5.75Zm8.568 11.078a1.438 1.438 0 0 0 0 2.875h5.75a1.438 1.438 0 0 0 0-2.875h-5.75Z"/></svg>