<svg xmlns="http://www.w3.org/2000/svg" xmlns:xlink="http://www.w3.org/1999/xlink" viewBox="0 0 128 26" overflow="visible"><g><path d="M 0 0 L 128 0 L 128 26 L 0 26 Z" fill="transparent"></path><path d="M 42.112 3.388 C 40.773 2.824 39.342 2.456 38.066 2.456 C 36.202 2.456 35.272 2.854 35.272 3.568 C 35.272 5.615 43.584 3.971 43.584 8.338 C 43.584 10.147 41.876 11.543 38.455 11.543 C 36.426 11.543 34.841 11.128 33.02 10.147 L 33.77 8.518 C 35.368 9.4 36.858 9.791 38.468 9.791 C 40.496 9.791 41.583 9.209 41.583 8.338 C 41.583 6.1 33.268 7.771 33.268 3.678 C 33.268 1.914 34.963 0.698 38.026 0.698 C 39.859 0.698 41.401 1.098 42.874 1.832 Z M 51.379 11.598 C 48.059 11.598 45.306 9.4 45.306 6.115 C 45.306 2.867 48.059 0.627 51.379 0.627 C 54.719 0.627 57.427 2.867 57.427 6.115 C 57.427 9.4 54.718 11.598 51.379 11.598 Z M 51.379 2.396 C 48.961 2.396 47.309 4.024 47.309 6.115 C 47.309 8.255 48.889 9.845 51.379 9.845 C 53.853 9.845 55.425 8.239 55.425 6.115 C 55.425 4.025 53.853 2.396 51.379 2.396 Z M 65.36 11.586 C 61.87 11.586 59.242 9.39 59.242 6.1 C 59.242 2.867 61.912 0.627 65.359 0.627 C 67.416 0.627 68.889 1.207 70.211 2.174 L 69.182 3.694 C 68.107 2.855 66.779 2.407 65.415 2.424 C 62.87 2.424 61.288 4.024 61.288 6.1 C 61.288 8.24 62.885 9.791 65.442 9.791 C 67.04 9.791 68.308 9.277 69.263 8.544 L 70.295 10.065 C 68.972 11.033 67.416 11.586 65.359 11.586 Z M 74.34 0.945 L 72.402 0.945 L 72.402 11.307 L 74.339 11.307 L 74.339 0.945 Z M 77.2 11.307 L 77.2 0.945 L 86.692 0.945 L 86.692 2.658 L 79.134 2.658 L 79.134 5.175 L 85.008 5.175 L 85.008 6.885 L 79.134 6.885 L 79.134 9.595 L 87.024 9.595 L 87.024 11.307 Z M 94.238 2.647 L 94.238 11.307 L 92.308 11.307 L 92.308 2.647 L 88.058 2.647 L 88.058 0.945 L 98.484 0.945 L 98.484 2.647 Z M 100.039 11.307 L 100.039 0.945 L 109.531 0.945 L 109.531 2.658 L 101.974 2.658 L 101.974 5.175 L 107.852 5.175 L 107.852 6.885 L 101.974 6.885 L 101.974 9.595 L 109.864 9.595 L 109.864 11.307 Z M 38.98 23.572 C 40.04 23.572 41.133 23.334 41.956 22.946 L 41.956 19.934 L 43.834 19.934 L 43.834 23.958 C 42.512 24.841 40.694 25.381 38.898 25.381 C 35.413 25.381 32.785 23.185 32.785 19.895 C 32.785 16.661 35.453 14.426 38.898 14.426 C 40.915 14.426 42.429 14.991 43.752 15.958 L 42.724 17.48 C 41.761 16.747 40.553 16.247 38.952 16.247 C 36.408 16.194 34.828 17.825 34.828 19.895 C 34.828 22.039 36.426 23.572 38.98 23.572 Z M 46.38 25.102 L 46.38 14.742 L 55.874 14.742 L 55.874 16.452 L 48.31 16.452 L 48.31 18.97 L 54.192 18.97 L 54.192 20.682 L 48.31 20.682 L 48.31 23.392 L 56.206 23.392 L 56.206 25.102 Z M 59.996 25.102 L 58.106 25.102 L 58.106 14.742 L 60.079 14.742 L 66.875 22.549 L 66.922 22.536 C 66.827 20.842 66.783 19.145 66.792 17.448 L 66.792 14.742 L 68.682 14.742 L 68.682 25.102 L 66.725 25.102 L 59.953 17.297 L 59.922 17.311 C 59.996 18.845 59.996 21.525 59.996 22.397 Z M 71.404 25.102 L 71.404 14.742 L 80.894 14.742 L 80.894 16.452 L 73.333 16.452 L 73.333 18.97 L 79.213 18.97 L 79.213 20.682 L 73.333 20.682 L 73.333 23.392 L 81.232 23.392 L 81.232 25.102 Z M 88.32 21.29 L 85.206 21.29 L 85.206 25.102 L 83.273 25.102 L 83.273 14.742 L 89.971 14.742 C 92.193 14.742 93.571 16.098 93.571 18.045 C 93.571 19.895 92.218 20.999 90.582 21.235 L 93.684 25.102 L 91.264 25.102 L 88.32 21.291 Z M 89.764 19.563 C 90.972 19.563 91.656 18.943 91.656 18.045 C 91.656 17.063 91.056 16.453 89.971 16.453 L 85.206 16.453 L 85.206 19.563 Z M 97.645 22.587 L 96.45 25.102 L 94.358 25.102 L 99.437 14.742 L 101.468 14.742 L 106.552 25.102 L 104.468 25.102 L 103.269 22.587 Z M 98.45 20.905 L 102.465 20.905 L 100.465 16.705 Z M 107.974 25.102 L 107.974 14.742 L 109.904 14.742 L 109.904 23.392 L 116.865 23.392 L 116.865 25.102 Z M 118.17 25.102 L 118.17 14.742 L 127.669 14.742 L 127.669 16.452 L 120.105 16.452 L 120.105 18.97 L 125.984 18.97 L 125.984 20.682 L 120.105 20.682 L 120.105 23.392 L 128 23.392 L 128 25.102 Z" fill="rgb(37,37,37)"></path><path d="M 26.155 0 L 0 0 L 0 26 L 26.155 26 Z" fill="rgb(255,255,255)"></path><path d="M 25.532 0.618 L 0.622 0.618 L 0.622 13.248 L 25.532 13.248 Z" fill="rgb(112,112,112)"></path><path d="M 25.532 13 L 0.622 13 L 0.622 25.38 L 25.532 25.38 Z" fill="rgb(0,0,0)"></path><path d="M 21.18 12.247 L 4.976 12.247 L 4.976 13.753 L 21.18 13.753 Z" fill="rgb(255,255,255)"></path></g></svg>