<svg xmlns="http://www.w3.org/2000/svg" width="46" height="46" fill="none"><path fill="#020A0F" d="M22.168 40.464a1.437 1.437 0 0 0 1.662 0L23 39.291l.832 1.173.015-.011.04-.029.154-.111a73.794 73.794 0 0 0 8.61-7.462c2.2-2.238 4.436-4.855 6.13-7.63 1.688-2.76 2.907-5.796 2.907-8.84 0-3.613-1.122-6.436-3.105-8.352-1.975-1.906-4.639-2.758-7.437-2.758-3.306 0-6.226 1.596-8.146 4.057-1.92-2.46-4.841-4.057-8.146-4.057-5.903 0-10.541 5.058-10.541 11.11 0 3.044 1.22 6.078 2.905 8.84 1.694 2.775 3.931 5.392 6.132 7.632a73.795 73.795 0 0 0 8.61 7.46l.153.111.04.029.015.011Z"/></svg>