<svg width="1532" height="342" viewBox="0 0 1532 342" fill="none" xmlns="http://www.w3.org/2000/svg">
<g clip-path="url(#clip0_5_2)">
<mask id="mask0_5_2" style="mask-type:luminance" maskUnits="userSpaceOnUse" x="0" y="0" width="2224" height="394">
<path d="M0 0H2224V394H0V0Z" fill="white"/>
</mask>
<g mask="url(#mask0_5_2)">
<path d="M27.13 96.713V47.573C47.92 25.523 72.49 14.183 102.1 14.183C128.56 14.183 154.39 20.483 181.48 33.083C207.94 45.053 231.25 51.353 250.78 51.353C272.83 51.353 299.92 38.123 323.23 14.183V62.693C302.44 85.373 276.61 96.713 247.63 96.713C221.8 96.713 195.34 90.413 168.25 77.813C141.79 65.843 118.48 59.543 98.32 59.543C78.16 59.543 51.7 72.143 27.13 96.713ZM27.13 197.513V148.373C47.92 126.323 72.49 114.983 102.1 114.983C128.56 114.983 154.39 121.283 181.48 133.883C207.94 145.853 231.25 152.153 250.78 152.153C272.83 152.153 299.92 138.923 323.23 114.983V163.493C302.44 186.173 276.61 197.513 247.63 197.513C221.8 197.513 195.34 191.213 168.25 178.613C141.79 166.643 118.48 160.343 98.32 160.343C78.16 160.343 51.7 172.943 27.13 197.513ZM27.13 298.313V249.173C47.92 227.123 72.49 215.783 102.1 215.783C128.56 215.783 154.39 222.083 181.48 234.683C207.94 246.653 231.25 252.953 250.78 252.953C272.83 252.953 299.92 239.723 323.23 215.783V264.293C302.44 286.973 276.61 298.313 247.63 298.313C221.8 298.313 195.34 292.013 168.25 279.413C141.79 267.443 118.48 261.143 98.32 261.143C78.16 261.143 51.7 273.743 27.13 298.313Z" fill="black"/>
<path d="M1363.91 262V89.84H1411.59V138.48L1404.87 124.4C1409.99 112.24 1418.21 103.067 1429.51 96.88C1440.82 90.48 1454.58 87.28 1470.79 87.28V133.36C1468.66 133.147 1466.74 133.04 1465.03 133.04C1463.33 132.827 1461.51 132.72 1459.59 132.72C1445.94 132.72 1434.85 136.667 1426.32 144.56C1418 152.24 1413.83 164.293 1413.83 180.72V262H1363.91Z" fill="black"/>
<path d="M1272.01 262V228.4L1268.81 221.04V160.88C1268.81 150.213 1265.51 141.893 1258.89 135.92C1252.49 129.947 1242.57 126.96 1229.13 126.96C1219.96 126.96 1210.89 128.453 1201.93 131.44C1193.19 134.213 1185.72 138.053 1179.53 142.96L1161.61 108.08C1171 101.467 1182.31 96.3467 1195.53 92.72C1208.76 89.0933 1222.2 87.28 1235.85 87.28C1262.09 87.28 1282.47 93.4667 1296.97 105.84C1311.48 118.213 1318.73 137.52 1318.73 163.76V262H1272.01ZM1219.53 264.56C1206.09 264.56 1194.57 262.32 1184.97 257.84C1175.37 253.147 1168.01 246.853 1162.89 238.96C1157.77 231.067 1155.21 222.213 1155.21 212.4C1155.21 202.16 1157.67 193.2 1162.57 185.52C1167.69 177.84 1175.69 171.867 1186.57 167.6C1197.45 163.12 1211.64 160.88 1229.13 160.88H1274.89V190H1234.57C1222.84 190 1214.73 191.92 1210.25 195.76C1205.99 199.6 1203.85 204.4 1203.85 210.16C1203.85 216.56 1206.31 221.68 1211.21 225.52C1216.33 229.147 1223.27 230.96 1232.01 230.96C1240.33 230.96 1247.8 229.04 1254.41 225.2C1261.03 221.147 1265.83 215.28 1268.81 207.6L1276.49 230.64C1272.87 241.733 1266.25 250.16 1256.65 255.92C1247.05 261.68 1234.68 264.56 1219.53 264.56Z" fill="black"/>
<path d="M1049.8 87.28C1063.46 87.28 1075.62 90.0533 1086.29 95.6C1097.17 100.933 1105.7 109.253 1111.89 120.56C1118.07 131.653 1121.17 145.947 1121.17 163.44V262H1071.24V171.12C1071.24 157.253 1068.15 147.013 1061.97 140.4C1055.99 133.787 1047.46 130.48 1036.36 130.48C1028.47 130.48 1021.32 132.187 1014.92 135.6C1008.74 138.8 1003.83 143.813 1000.21 150.64C996.792 157.467 995.085 166.213 995.085 176.88V262H945.165V89.84H992.845V137.52L983.885 123.12C990.072 111.6 998.925 102.747 1010.45 96.56C1021.97 90.3733 1035.08 87.28 1049.8 87.28Z" fill="black"/>
<path d="M853.265 262V228.4L850.065 221.04V160.88C850.065 150.213 846.758 141.893 840.145 135.92C833.745 129.947 823.825 126.96 810.385 126.96C801.212 126.96 792.145 128.453 783.185 131.44C774.438 134.213 766.972 138.053 760.785 142.96L742.865 108.08C752.252 101.467 763.558 96.3467 776.785 92.72C790.012 89.0933 803.452 87.28 817.105 87.28C843.345 87.28 863.718 93.4667 878.225 105.84C892.732 118.213 899.985 137.52 899.985 163.76V262H853.265ZM800.785 264.56C787.345 264.56 775.825 262.32 766.225 257.84C756.625 253.147 749.265 246.853 744.145 238.96C739.025 231.067 736.465 222.213 736.465 212.4C736.465 202.16 738.918 193.2 743.825 185.52C748.945 177.84 756.945 171.867 767.825 167.6C778.705 163.12 792.892 160.88 810.385 160.88H856.145V190H815.825C804.092 190 795.985 191.92 791.505 195.76C787.238 199.6 785.105 204.4 785.105 210.16C785.105 216.56 787.558 221.68 792.465 225.52C797.585 229.147 804.518 230.96 813.265 230.96C821.585 230.96 829.052 229.04 835.665 225.2C842.278 221.147 847.078 215.28 850.065 207.6L857.745 230.64C854.118 241.733 847.505 250.16 837.905 255.92C828.305 261.68 815.932 264.56 800.785 264.56Z" fill="black"/>
<path d="M651.415 262V24.56H701.335V262H651.415Z" fill="black"/>
<path d="M420.56 262V38H517.52C537.573 38 554.853 41.3067 569.36 47.92C583.867 54.32 595.067 63.6 602.96 75.76C610.853 87.92 614.8 102.427 614.8 119.28C614.8 135.92 610.853 150.32 602.96 162.48C595.067 174.64 583.867 184.027 569.36 190.64C554.853 197.04 537.573 200.24 517.52 200.24H449.36L472.4 176.88V262H420.56ZM472.4 182.64L449.36 158H514.64C530.64 158 542.587 154.587 550.48 147.76C558.373 140.933 562.32 131.44 562.32 119.28C562.32 106.907 558.373 97.3067 550.48 90.48C542.587 83.6533 530.64 80.24 514.64 80.24H449.36L472.4 55.6V182.64Z" fill="black"/>
</g>
</g>
<defs>
<clipPath id="clip0_5_2">
<rect width="1532" height="342" fill="white"/>
</clipPath>
</defs>
</svg>
