<svg width="397" height="385" viewBox="0 0 397 385" fill="none" xmlns="http://www.w3.org/2000/svg">
<path d="M50.13 132.53V83.39C70.92 61.34 95.49 50 125.1 50C151.56 50 177.39 56.3 204.48 68.9C230.94 80.87 254.25 87.17 273.78 87.17C295.83 87.17 322.92 73.94 346.23 50V98.51C325.44 121.19 299.61 132.53 270.63 132.53C244.8 132.53 218.34 126.23 191.25 113.63C164.79 101.66 141.48 95.36 121.32 95.36C101.16 95.36 74.7 107.96 50.13 132.53ZM50.13 233.33V184.19C70.92 162.14 95.49 150.8 125.1 150.8C151.56 150.8 177.39 157.1 204.48 169.7C230.94 181.67 254.25 187.97 273.78 187.97C295.83 187.97 322.92 174.74 346.23 150.8V199.31C325.44 221.99 299.61 233.33 270.63 233.33C244.8 233.33 218.34 227.03 191.25 214.43C164.79 202.46 141.48 196.16 121.32 196.16C101.16 196.16 74.7 208.76 50.13 233.33ZM50.13 334.13V284.99C70.92 262.94 95.49 251.6 125.1 251.6C151.56 251.6 177.39 257.9 204.48 270.5C230.94 282.47 254.25 288.77 273.78 288.77C295.83 288.77 322.92 275.54 346.23 251.6V300.11C325.44 322.79 299.61 334.13 270.63 334.13C244.8 334.13 218.34 327.83 191.25 315.23C164.79 303.26 141.48 296.96 121.32 296.96C101.16 296.96 74.7 309.56 50.13 334.13Z" fill="black"/>
</svg>
