<svg xmlns="http://www.w3.org/2000/svg" xmlns:xlink="http://www.w3.org/1999/xlink" viewBox="0 0 129 21.006" overflow="visible"><g><path d="M 0 0.005 L 129 0.005 L 129 21.005 L 0 21.005 Z" fill="transparent"></path><path d="M 37.906 5.219 L 31.773 5.219 C 31.581 5.22 31.398 5.296 31.261 5.43 L 29.877 6.816 C 29.742 6.953 29.667 7.137 29.666 7.329 L 29.666 15.647 C 29.666 15.687 29.698 15.719 29.738 15.719 L 31.402 15.719 C 31.442 15.719 31.474 15.687 31.474 15.647 L 31.474 11.737 C 31.473 11.641 31.511 11.549 31.578 11.48 C 31.646 11.412 31.738 11.374 31.834 11.373 L 37.184 11.373 C 37.224 11.373 37.257 11.341 37.258 11.301 L 37.258 9.637 C 37.256 9.597 37.224 9.566 37.184 9.565 L 31.83 9.565 C 31.684 9.566 31.552 9.477 31.497 9.341 C 31.479 9.297 31.47 9.249 31.47 9.201 L 31.47 7.391 C 31.471 7.193 31.632 7.033 31.83 7.033 L 37.905 7.033 C 37.945 7.033 37.977 7.001 37.977 6.961 L 37.977 5.294 C 37.978 5.275 37.971 5.256 37.957 5.241 C 37.943 5.227 37.925 5.219 37.905 5.219 Z M 57.033 6.819 L 55.654 5.43 C 55.518 5.294 55.334 5.217 55.142 5.216 L 50.32 5.216 C 50.128 5.217 49.944 5.294 49.808 5.43 L 48.424 6.816 C 48.288 6.951 48.213 7.135 48.214 7.326 L 48.214 15.644 C 48.214 15.684 48.246 15.716 48.286 15.716 L 49.947 15.716 C 49.987 15.716 50.02 15.685 50.022 15.644 L 50.022 12.46 C 50.021 12.364 50.059 12.272 50.126 12.204 C 50.194 12.136 50.286 12.097 50.382 12.097 L 55.081 12.097 C 55.281 12.098 55.443 12.26 55.443 12.46 L 55.443 15.647 C 55.443 15.687 55.475 15.719 55.515 15.719 L 57.177 15.719 C 57.217 15.719 57.249 15.689 57.252 15.649 L 57.252 7.332 C 57.25 7.139 57.171 6.954 57.032 6.819 Z M 55.433 9.926 C 55.433 10.126 55.272 10.288 55.073 10.289 L 50.379 10.289 C 50.179 10.288 50.018 10.126 50.019 9.926 L 50.019 7.391 C 50.021 7.193 50.181 7.033 50.379 7.031 L 55.081 7.031 C 55.279 7.032 55.44 7.193 55.441 7.391 Z M 46.632 15.719 L 41.59 15.719 C 41.398 15.719 41.215 15.644 41.078 15.509 L 39.699 14.122 C 39.564 13.986 39.488 13.801 39.489 13.609 L 39.489 5.291 C 39.489 5.252 39.521 5.219 39.561 5.219 L 41.222 5.219 C 41.262 5.219 41.295 5.251 41.297 5.291 L 41.297 13.547 C 41.296 13.693 41.384 13.825 41.519 13.881 C 41.563 13.899 41.609 13.909 41.657 13.908 L 46.633 13.908 C 46.673 13.908 46.705 13.941 46.705 13.98 L 46.705 15.647 C 46.705 15.687 46.673 15.719 46.633 15.719 Z M 67.079 11.162 L 65.695 9.776 C 65.559 9.641 65.375 9.565 65.183 9.565 L 61.145 9.565 C 60.999 9.566 60.867 9.477 60.812 9.341 C 60.794 9.297 60.785 9.249 60.785 9.201 L 60.785 7.391 C 60.784 7.296 60.822 7.204 60.89 7.136 C 60.957 7.068 61.049 7.031 61.145 7.031 L 66.857 7.031 C 66.876 7.032 66.895 7.024 66.909 7.01 C 66.923 6.997 66.93 6.978 66.93 6.958 L 66.93 5.291 C 66.93 5.272 66.922 5.254 66.909 5.24 C 66.895 5.227 66.876 5.219 66.857 5.219 L 61.081 5.219 C 60.89 5.221 60.707 5.296 60.571 5.43 L 59.188 6.816 C 59.052 6.952 58.975 7.137 58.974 7.329 L 58.974 9.266 C 58.975 9.458 59.052 9.641 59.188 9.776 L 60.572 11.162 C 60.707 11.299 60.892 11.375 61.084 11.376 L 65.119 11.376 C 65.318 11.376 65.48 11.537 65.481 11.736 L 65.481 13.547 C 65.481 13.643 65.443 13.735 65.375 13.803 C 65.307 13.871 65.215 13.909 65.119 13.908 L 59.412 13.908 C 59.373 13.91 59.342 13.941 59.34 13.98 L 59.34 15.647 C 59.34 15.687 59.372 15.719 59.412 15.719 L 65.182 15.719 C 65.374 15.72 65.559 15.645 65.695 15.509 L 67.079 14.122 C 67.214 13.986 67.29 13.801 67.289 13.609 L 67.289 11.672 C 67.289 11.481 67.214 11.298 67.079 11.162 Z M 87.88 11.162 L 86.5 9.776 C 86.364 9.641 86.18 9.565 85.988 9.565 L 81.95 9.565 C 81.854 9.566 81.761 9.527 81.693 9.459 C 81.625 9.391 81.587 9.299 81.587 9.202 L 81.587 7.391 C 81.589 7.192 81.751 7.031 81.95 7.031 L 87.66 7.031 C 87.679 7.031 87.698 7.024 87.711 7.01 C 87.725 6.996 87.732 6.978 87.732 6.958 L 87.732 5.291 C 87.732 5.252 87.7 5.219 87.66 5.219 L 81.886 5.219 C 81.694 5.22 81.511 5.296 81.374 5.43 L 79.993 6.816 C 79.857 6.952 79.78 7.137 79.779 7.329 L 79.779 9.266 C 79.78 9.458 79.857 9.641 79.993 9.776 L 81.374 11.162 C 81.51 11.299 81.694 11.375 81.886 11.376 L 85.926 11.376 C 86.126 11.377 86.287 11.54 86.286 11.739 L 86.286 13.55 C 86.285 13.749 86.125 13.91 85.926 13.91 L 80.216 13.91 C 80.197 13.911 80.179 13.918 80.165 13.932 C 80.152 13.946 80.145 13.964 80.145 13.983 L 80.145 15.65 C 80.145 15.69 80.177 15.722 80.217 15.722 L 85.987 15.722 C 86.179 15.722 86.363 15.646 86.5 15.511 L 87.881 14.125 C 88.017 13.989 88.094 13.805 88.094 13.612 L 88.094 11.675 C 88.094 11.483 88.018 11.298 87.881 11.162 Z M 91.627 7.391 C 91.628 7.193 91.788 7.032 91.987 7.031 L 97.337 7.031 C 97.377 7.031 97.41 6.999 97.411 6.958 L 97.411 5.291 C 97.41 5.251 97.377 5.219 97.337 5.219 L 91.926 5.219 C 91.734 5.22 91.551 5.296 91.414 5.43 L 90.029 6.816 C 89.894 6.953 89.818 7.137 89.819 7.329 L 89.819 13.606 C 89.818 13.798 89.894 13.983 90.029 14.119 L 91.414 15.505 C 91.549 15.642 91.734 15.719 91.926 15.719 L 97.336 15.719 C 97.355 15.72 97.374 15.712 97.388 15.699 C 97.401 15.685 97.409 15.667 97.409 15.647 L 97.409 13.977 C 97.409 13.938 97.377 13.905 97.337 13.905 L 91.987 13.905 C 91.891 13.906 91.799 13.868 91.732 13.8 C 91.664 13.733 91.626 13.641 91.627 13.545 Z M 107.969 6.819 L 106.58 5.43 C 106.444 5.294 106.26 5.217 106.068 5.216 L 101.244 5.216 C 101.052 5.216 100.868 5.294 100.734 5.43 L 99.35 6.816 C 99.214 6.951 99.137 7.135 99.137 7.326 L 99.137 13.605 C 99.137 13.797 99.214 13.982 99.35 14.117 L 100.734 15.504 C 100.869 15.64 101.053 15.715 101.244 15.714 L 106.068 15.714 C 106.26 15.715 106.444 15.639 106.58 15.504 L 107.964 14.117 C 108.1 13.982 108.176 13.797 108.175 13.605 L 108.175 7.328 C 108.176 7.138 108.102 6.956 107.969 6.82 Z M 106.369 13.547 C 106.369 13.643 106.331 13.735 106.263 13.803 C 106.195 13.871 106.103 13.909 106.007 13.908 L 101.302 13.908 C 101.206 13.909 101.114 13.871 101.046 13.803 C 100.977 13.736 100.939 13.644 100.94 13.547 L 100.94 7.405 C 100.938 7.308 100.975 7.214 101.043 7.144 C 101.111 7.074 101.205 7.035 101.302 7.034 L 106.001 7.034 C 106.2 7.034 106.362 7.195 106.364 7.394 L 106.369 13.548 Z M 77.98 5.219 L 76.317 5.219 C 76.277 5.219 76.245 5.252 76.245 5.291 L 76.245 9.201 C 76.245 9.402 76.083 9.565 75.882 9.565 L 71.183 9.565 C 71.037 9.566 70.905 9.477 70.85 9.341 C 70.832 9.297 70.823 9.249 70.823 9.201 L 70.823 5.291 C 70.823 5.252 70.791 5.219 70.751 5.219 L 69.087 5.219 C 69.047 5.219 69.015 5.252 69.015 5.291 L 69.015 15.647 C 69.015 15.687 69.047 15.719 69.087 15.719 L 70.751 15.719 C 70.791 15.719 70.823 15.687 70.823 15.647 L 70.823 11.737 C 70.822 11.591 70.91 11.458 71.045 11.401 C 71.089 11.383 71.136 11.373 71.183 11.373 L 75.882 11.373 C 75.978 11.373 76.071 11.412 76.139 11.48 C 76.207 11.548 76.245 11.641 76.245 11.737 L 76.245 15.647 C 76.245 15.687 76.277 15.719 76.317 15.719 L 77.981 15.719 C 78.021 15.719 78.053 15.687 78.053 15.647 L 78.053 5.291 C 78.053 5.252 78.021 5.219 77.981 5.219 Z M 118.941 7.329 C 118.942 7.137 118.864 6.953 118.727 6.819 L 117.373 5.43 C 117.238 5.294 117.055 5.217 116.863 5.216 L 109.975 5.216 C 109.956 5.216 109.937 5.224 109.924 5.238 C 109.911 5.252 109.903 5.27 109.903 5.288 L 109.903 15.645 C 109.903 15.665 109.91 15.683 109.924 15.696 C 109.938 15.71 109.956 15.717 109.975 15.717 L 111.636 15.717 C 111.676 15.717 111.708 15.685 111.708 15.645 L 111.708 11.732 C 111.713 11.547 111.855 11.395 112.039 11.377 L 114.37 11.377 L 116.871 15.72 L 118.959 15.72 L 116.455 11.374 L 116.853 11.374 C 117.045 11.375 117.229 11.299 117.365 11.164 L 118.719 9.777 C 118.855 9.641 118.932 9.457 118.933 9.264 L 118.941 7.33 Z M 117.133 9.199 C 117.13 9.398 116.969 9.558 116.77 9.559 L 112.068 9.559 C 111.87 9.559 111.709 9.399 111.708 9.201 L 111.708 7.383 C 111.71 7.187 111.869 7.028 112.066 7.025 L 116.77 7.025 C 116.969 7.026 117.13 7.186 117.133 7.385 Z M 122.856 7.033 L 128.928 7.033 C 128.947 7.033 128.965 7.026 128.979 7.012 C 128.992 6.999 129 6.98 129 6.961 L 129 5.294 C 129 5.275 128.992 5.257 128.979 5.243 C 128.965 5.23 128.947 5.222 128.928 5.222 L 122.794 5.222 C 122.602 5.223 122.419 5.298 122.282 5.432 L 120.898 6.819 C 120.762 6.956 120.687 7.14 120.688 7.332 L 120.688 13.609 C 120.686 13.802 120.762 13.987 120.898 14.122 L 122.282 15.508 C 122.418 15.643 122.602 15.719 122.794 15.719 L 128.928 15.719 C 128.947 15.719 128.965 15.712 128.979 15.698 C 128.992 15.685 129 15.666 129 15.647 L 129 13.977 C 129 13.959 128.992 13.941 128.979 13.927 C 128.965 13.914 128.947 13.906 128.928 13.906 L 122.853 13.906 C 122.757 13.906 122.666 13.868 122.598 13.801 C 122.531 13.733 122.493 13.641 122.493 13.545 L 122.493 11.734 C 122.494 11.535 122.654 11.374 122.853 11.371 L 127.12 11.371 C 127.139 11.371 127.157 11.364 127.171 11.35 C 127.184 11.337 127.192 11.318 127.192 11.299 L 127.192 9.634 C 127.192 9.616 127.184 9.598 127.171 9.584 C 127.158 9.571 127.139 9.563 127.12 9.562 L 122.853 9.562 C 122.654 9.56 122.494 9.398 122.493 9.199 L 122.493 7.388 C 122.496 7.191 122.655 7.031 122.853 7.028 Z M 4.427 11.574 C 4.335 11.045 4.311 10.506 4.357 9.971 L 0.04 9.591 C -0.119 11.424 0.206 13.266 0.981 14.934 L 4.912 13.101 C 4.684 12.616 4.521 12.102 4.427 11.574 Z M 5.776 14.461 L 2.453 17.252 C 3.439 18.424 4.667 19.367 6.053 20.017 L 7.886 16.082 C 7.073 15.702 6.353 15.148 5.776 14.461 Z M 11.55 16.568 C 11.022 16.662 10.484 16.686 9.95 16.638 L 9.563 20.965 C 10.781 21.073 12.009 20.965 13.19 20.647 L 12.067 16.451 C 11.897 16.5 11.725 16.539 11.55 16.568 Z M 9.414 4.442 C 10.136 4.312 10.876 4.312 11.598 4.442 L 13.465 0.435 C 10.752 -0.373 7.828 -0.047 5.36 1.338 C 2.889 2.724 1.084 5.051 0.357 7.788 L 4.547 8.902 C 5.165 6.596 7.063 4.857 9.414 4.442 Z M 14.433 15.22 L 17.22 18.545 C 17.92 17.955 18.54 17.275 19.065 16.525 L 15.515 14.036 C 15.208 14.476 14.844 14.874 14.433 15.22 Z M 20.924 9.592 L 16.606 9.971 C 16.636 10.326 16.636 10.684 16.606 11.039 L 20.926 11.419 C 20.979 10.811 20.978 10.199 20.924 9.592 Z M 15.369 0.005 L 11.337 8.67 L 28.772 0.005 L 15.37 0.005 Z" fill="rgb(37,37,37)"></path></g></svg>