<svg xmlns="http://www.w3.org/2000/svg" xmlns:xlink="http://www.w3.org/1999/xlink" viewBox="0 0 119.06 31.089" overflow="visible"><g><path d="M 0.06 0.089 L 119.06 0.089 L 119.06 31.089 L 0.06 31.089 Z" fill="transparent"></path><g transform="translate(0 0)"><path d="M 60.963 2.299 L 55.98 2.299 L 55.98 24.083 L 60.963 24.083 Z M 67.931 2.299 L 62.95 2.299 L 62.95 24.083 L 67.932 24.083 L 67.932 2.299 Z M 113.689 8.864 C 112.069 8.864 110.718 9.609 109.817 10.834 L 109.817 9.164 L 104.745 9.164 L 104.745 24.084 L 109.848 24.084 L 109.848 15.877 C 109.848 14.087 110.688 13.25 111.859 13.25 C 113.18 13.25 113.81 14.115 113.81 15.667 L 113.81 24.082 L 119.002 24.082 L 119.002 14.563 C 119.002 10.953 116.901 8.863 113.689 8.863 Z" fill="rgb(37,37,37)"></path><path d="M 99.727 9.162 L 96.902 17.199 L 94.234 9.162 L 89.217 9.162 L 86.547 17.219 L 83.875 9.163 L 79.464 9.163 L 76.612 17.219 L 74.091 9.163 L 68.989 9.163 L 71.38 16.322 L 73.97 24.082 L 78.713 24.082 L 81.564 16.294 L 84.295 24.083 L 89.037 24.083 L 91.78 16.289 L 94.355 23.455 L 91.443 30.975 L 96.606 30.975 L 104.95 9.161 L 99.727 9.161 Z M 46.041 19.766 C 44.301 19.77 42.886 18.363 42.881 16.623 C 42.887 14.883 44.301 13.477 46.041 13.481 C 46.877 13.479 47.679 13.808 48.272 14.398 C 48.864 14.987 49.199 15.787 49.201 16.623 C 49.199 17.459 48.865 18.26 48.272 18.849 C 47.679 19.439 46.877 19.768 46.041 19.766 Z M 48.892 10.834 C 48.052 9.61 46.761 8.865 44.901 8.865 C 41.36 8.865 38.088 11.82 38.088 16.623 C 38.088 21.427 41.389 24.382 44.812 24.382 C 46.642 24.382 48.022 23.635 48.893 22.322 L 48.893 24.084 L 53.996 24.084 L 53.996 9.164 L 48.893 9.164 L 48.893 10.834 Z M 15.576 30.977 C 24.179 30.977 31.153 24.042 31.153 15.489 C 31.153 6.935 24.179 0 15.576 0 C 6.973 0 0 6.935 0 15.489 C 0 24.042 6.974 30.977 15.577 30.977 Z" fill="rgb(37,37,37)"></path><path d="M 15.058 19.109 C 13.048 19.109 11.418 17.488 11.418 15.489 C 11.418 13.489 13.048 11.868 15.058 11.868 C 17.068 11.868 18.7 13.488 18.7 15.488 C 18.7 17.488 17.07 19.108 15.058 19.108 Z M 18.343 8.819 C 17.375 7.41 15.888 6.551 13.745 6.551 C 9.665 6.551 5.897 9.954 5.897 15.489 C 5.897 21.024 9.7 24.427 13.641 24.427 C 15.75 24.427 17.341 23.567 18.343 22.055 L 18.343 24.083 L 24.22 24.083 L 24.22 6.894 L 18.343 6.894 L 18.343 8.82 Z" fill="rgb(255,255,255)"></path></g></g></svg>