<svg xmlns="http://www.w3.org/2000/svg" xmlns:xlink="http://www.w3.org/1999/xlink" viewBox="0 0 85.3 40" overflow="visible"><path d="M 0 29.501 L 3.301 29.501 L 3.301 33.132 L 9.2 33.132 L 9.2 29.501 L 12.461 29.501 L 12.461 39.691 L 9.2 39.691 L 9.2 35.4 L 3.26 35.4 L 3.26 39.65 L 0 39.65 Z M 12.832 29.5 L 12.833 29.501 L 12.832 29.501 Z M 16.049 29.501 L 19.432 33.42 L 22.775 29.501 L 25.951 29.501 L 21.042 35.731 L 21.042 39.691 L 17.782 39.691 L 17.782 35.442 L 12.833 29.501 Z M 29.623 29.501 L 29.623 37.38 L 34.862 37.38 C 35.688 37.38 36.224 36.557 36.224 35.69 L 36.224 29.501 L 39.483 29.501 L 39.483 37.628 C 39.483 38.906 38.039 39.65 37.214 39.65 L 26.365 39.65 L 26.365 29.501 Z M 51.036 29.501 C 52.314 29.501 53.346 30.284 53.346 31.874 L 53.346 39.669 L 50.088 39.691 L 50.088 33.502 C 50.088 32.638 49.798 32.122 48.684 32.122 L 43.776 32.122 L 43.776 39.713 L 40.185 39.713 L 40.185 29.501 Z M 54.337 29.501 L 63.825 29.501 C 65.724 29.501 67.188 31.027 67.188 32.203 L 67.188 36.886 C 67.168 37.71 66.012 39.69 64.569 39.69 L 54.338 39.69 L 54.338 29.502 Z M 62.665 37.422 C 63.387 37.422 63.944 36.886 63.944 36.225 L 63.944 33.255 C 63.944 32.533 63.351 32.101 62.588 32.101 L 57.659 32.101 L 57.659 37.422 Z M 71.212 29.459 L 81.381 29.459 L 81.381 39.691 L 77.75 39.691 L 77.75 37.052 L 71.5 37.052 L 71.5 39.691 L 67.827 39.691 L 67.827 33.048 C 67.744 30.821 69.726 29.458 71.212 29.458 Z M 71.458 33.092 L 71.458 34.74 L 77.73 34.74 L 77.73 32.14 L 72.448 32.14 C 71.829 32.14 71.458 32.512 71.458 33.092 Z M 82.041 29.481 L 85.3 29.481 L 85.3 40 L 82.041 40 Z M 67.338 12.09 C 67.338 18.766 56.373 24.18 42.849 24.18 C 29.324 24.18 18.359 18.766 18.359 12.09 C 18.359 5.414 29.324 0 42.849 0 C 56.372 0 67.338 5.415 67.338 12.09 Z M 43.538 9.79 C 50.248 8.411 55.883 5.23 54.851 4.24 C 51.624 2.691 43.32 1.702 40.525 2.691 C 38.503 4.326 33.943 11.725 43.538 9.79 Z M 26.33 16.5 C 26.759 14.779 31.492 6.95 33.772 4.584 C 34.847 3.681 33.987 3.38 32.781 3.638 C 30.287 4.154 28.265 4.628 24.652 6.736 C 17.812 11.21 21.94 15.513 24.05 17.016 C 25.298 17.962 25.985 17.663 26.33 16.5 Z M 47.364 15.081 C 44.827 12.5 30.718 17.145 30.544 19.943 C 30.717 21.103 39.707 22.437 43.751 22.008 C 46.376 21.878 48.441 17.102 47.364 15.081 Z M 61.218 7.036 C 60.7 6.65 59.884 6.26 59.453 7.251 C 58.722 9.188 52.915 18.909 51.709 19.64 C 50.979 20.286 51.365 20.973 52.485 20.717 C 59.797 18.909 63.281 16.241 64.314 13.875 C 65.303 10.993 63.54 8.54 61.218 7.036 Z" fill="rgb(37,37,37)"></path></svg>