<svg xmlns="http://www.w3.org/2000/svg" xmlns:xlink="http://www.w3.org/1999/xlink" viewBox="0 0 127 34" overflow="visible"><g><path d="M 0 0 L 127 0 L 127 34 L 0 34 Z" fill="transparent"></path><g><path d="M 16.568 21.527 L 0 21.527 L 0 3.116 L 2.564 3.116 L 2.564 19.518 L 16.568 19.518 Z M 13.753 9.629 L 11.853 9.627 L 14.427 3.116 L 17.204 3.116 L 13.753 9.628 Z M 40.475 11.643 C 40.476 9.154 39.487 6.767 37.726 5.008 C 35.968 3.253 33.58 2.276 31.096 2.297 C 25.554 2.297 21.516 6.645 21.516 11.643 C 21.516 16.645 25.754 20.796 30.897 20.796 C 36.037 20.796 40.475 16.645 40.475 11.643 Z M 30.984 0.001 C 38.35 0.001 43.48 5.264 43.48 11.64 C 43.48 18.414 37.887 23.079 30.985 23.079 C 24.083 23.079 18.486 18.347 18.486 11.637 C 18.486 5.263 23.551 0 30.985 0 Z M 61.548 10.135 C 61.998 9.392 62.172 8.298 61.901 7.465 C 61.488 6.253 60.341 5.296 58.301 5.296 L 49.445 5.296 L 49.445 11.628 L 58.005 11.628 C 59.404 11.628 60.808 11.368 61.548 10.135 Z M 65.817 21.527 L 62.498 21.527 L 56.965 13.806 L 49.447 13.806 L 49.447 21.527 L 46.812 21.527 L 46.812 3.116 L 58.364 3.116 C 62.332 3.116 64.535 5.154 64.787 8.442 C 64.806 9.564 64.397 12.704 60.2 13.831 C 61.837 16.33 65.817 21.527 65.817 21.527 Z M 93.496 14.459 L 93.497 14.458 L 93.496 14.458 Z M 93.497 14.458 L 102.333 14.458 L 97.886 5.661 Z M 96.102 3.117 L 99.69 3.117 L 109.017 21.527 L 105.899 21.527 L 103.493 16.762 L 92.317 16.762 L 89.933 21.527 L 86.783 21.527 L 96.102 3.116 Z M 127 21.527 L 110.432 21.527 L 110.432 3.116 L 112.996 3.116 L 112.996 19.516 L 127 19.516 Z M 82.356 0.143 L 75.392 2.645 L 77.61 0.143 Z M 71.903 13.083 L 71.903 19.517 L 85.483 19.517 L 85.483 21.527 L 69.091 21.527 L 69.091 3.114 L 85.481 3.114 L 85.481 5.12 L 71.904 5.12 L 71.904 11.047 L 82.101 11.047 L 82.101 13.083 Z M 73.592 28.475 L 74.906 28.475 L 74.906 33.733 L 73.592 33.733 Z M 73.584 26.378 L 74.898 26.378 L 74.898 27.698 L 73.584 27.698 Z M 85.872 31.776 C 85.872 33.519 83.696 34 82.004 34 C 80.173 34 79.454 33.59 79.014 33.293 C 78.174 32.73 78.01 32.116 78.01 31.428 L 79.263 31.428 C 79.263 32.759 80.723 33.15 81.988 33.15 C 82.953 33.15 84.579 32.965 84.579 31.91 C 84.579 31.142 84.096 30.896 82.472 30.61 L 80.447 30.26 C 79.8 30.148 78.339 29.811 78.339 28.529 C 78.339 27.382 79.346 26.257 81.742 26.257 C 85.196 26.257 85.542 27.793 85.596 28.602 L 84.343 28.602 C 84.275 27.465 83.009 27.107 81.893 27.107 C 81.053 27.107 79.636 27.282 79.636 28.397 C 79.636 29.022 80.228 29.226 80.806 29.328 L 83.629 29.811 C 84.907 30.037 85.872 30.61 85.872 31.776 Z M 56.537 30.751 L 54.861 27.515 L 54.829 27.515 L 53.009 30.751 Z M 55.777 26.42 L 59.888 33.774 L 58.211 33.774 L 57.091 31.632 L 52.536 31.632 L 51.351 33.774 L 49.771 33.774 L 54.038 26.42 Z M 66.502 29.82 C 67.745 29.82 68.589 29.492 68.589 28.499 C 68.589 27.565 67.703 27.268 66.559 27.268 L 63.747 27.268 L 63.747 29.82 Z M 70.338 33.721 L 68.775 33.721 L 66.683 30.736 C 66.658 30.699 66.607 30.678 66.555 30.668 L 66.622 30.668 C 66.6 30.664 66.577 30.664 66.555 30.668 L 63.747 30.668 L 63.747 33.774 L 62.362 33.774 L 62.362 26.418 L 66.973 26.418 C 68.873 26.418 70.014 27.298 70.014 28.487 C 70.014 29.333 69.456 30.27 68.004 30.569 Z M 47.975 28.498 C 47.975 27.564 47.089 27.268 45.945 27.268 L 43.135 27.268 L 43.135 29.818 L 45.89 29.818 C 47.131 29.818 47.975 29.49 47.975 28.498 Z M 46.363 26.418 C 48.263 26.418 49.404 27.297 49.404 28.487 C 49.404 29.512 48.591 30.668 46.363 30.668 L 43.137 30.668 L 43.137 33.772 L 41.75 33.772 L 41.75 26.418 Z" fill="rgb(37,37,37)"></path></g></g></svg>