<svg width="24" height="24" viewBox="0 0 24 24" fill="none" xmlns="http://www.w3.org/2000/svg">
<path d="M6.42998 4.00697C6.56388 4.00533 6.69779 4.00369 6.83575 4.00199C7.27654 3.99788 7.71697 4.0006 8.15776 4.00377C8.46512 4.00314 8.77249 4.00223 9.07985 4.00105C9.7233 3.99967 10.3666 4.00167 11.0101 4.00606C11.8338 4.01139 12.6573 4.00832 13.4811 4.00271C14.1156 3.99932 14.75 4.0004 15.3845 4.00283C15.6881 4.00345 15.9918 4.00269 16.2955 4.0005C16.7204 3.99812 17.1449 4.00176 17.5698 4.00697C17.8112 4.00772 18.0527 4.00846 18.3015 4.00923C19.1182 4.16278 19.3903 4.39269 19.8715 5.06533C19.9905 5.69824 19.9905 5.69824 19.9928 6.42998C19.9944 6.56388 19.9961 6.69779 19.9978 6.83575C20.0019 7.27654 19.9991 7.71697 19.996 8.15776C19.9966 8.46512 19.9975 8.77249 19.9987 9.07985C20.0001 9.7233 19.9981 10.3666 19.9937 11.0101C19.9884 11.8338 19.9914 12.6573 19.997 13.4811C20.0004 14.1156 19.9993 14.75 19.9969 15.3845C19.9963 15.6881 19.9971 15.9918 19.9992 16.2955C20.0016 16.7204 19.998 17.1449 19.9928 17.5698C19.9917 17.932 19.9917 17.932 19.9905 18.3015C19.837 19.1182 19.6071 19.3903 18.9344 19.8715C18.3015 19.9905 18.3015 19.9905 17.5698 19.9928C17.4359 19.9944 17.302 19.9961 17.164 19.9978C16.7232 20.0019 16.2828 19.9991 15.842 19.996C15.5346 19.9966 15.2273 19.9975 14.9199 19.9987C14.2764 20.0001 13.6331 19.9981 12.9897 19.9937C12.1659 19.9884 11.3424 19.9914 10.5187 19.997C9.88418 20.0004 9.24976 19.9993 8.61528 19.9969C8.31161 19.9963 8.00793 19.9971 7.70426 19.9992C7.27934 20.0016 6.85487 19.998 6.42998 19.9928C6.1885 19.992 5.94703 19.9913 5.69824 19.9905C4.88153 19.837 4.60949 19.6071 4.12823 18.9344C4.00923 18.3015 4.00923 18.3015 4.00697 17.5698C4.00533 17.4359 4.00369 17.302 4.00199 17.164C3.99788 16.7232 4.0006 16.2828 4.00377 15.842C4.00314 15.5346 4.00223 15.2273 4.00105 14.9199C3.99967 14.2764 4.00167 13.6331 4.00606 12.9897C4.01139 12.1659 4.00832 11.3424 4.00271 10.5187C3.99932 9.88418 4.0004 9.24976 4.00283 8.61528C4.00345 8.31161 4.00269 8.00793 4.0005 7.70426C3.99812 7.27934 4.00176 6.85487 4.00697 6.42998C4.00772 6.1885 4.00846 5.94703 4.00923 5.69824C4.27165 4.30251 5.11702 4.01102 6.42998 4.00697ZM6.93953 7.68921C6.99385 8.30898 6.99385 8.30898 7.31437 8.81373C7.86879 8.8606 7.86879 8.8606 8.43889 8.81373C8.56259 8.69003 8.68628 8.56634 8.81373 8.43889C8.75941 7.81912 8.75941 7.81912 8.43889 7.31437C7.59571 7.2268 7.59571 7.2268 6.93953 7.68921ZM6.75211 10.1257C6.75211 12.4759 6.75211 14.8262 6.75211 17.2476C7.49429 17.2476 8.23648 17.2476 9.00115 17.2476C9.00115 14.8974 9.00115 12.5471 9.00115 10.1257C8.25897 10.1257 7.51678 10.1257 6.75211 10.1257ZM10.1257 10.1257C10.1257 12.4759 10.1257 14.8262 10.1257 17.2476C10.8679 17.2476 11.61 17.2476 12.3747 17.2476C12.3774 16.9159 12.38 16.5842 12.3828 16.2424C12.3916 15.8083 12.4006 15.3742 12.4099 14.94C12.4109 14.7213 12.412 14.5025 12.4131 14.2771C12.4186 14.0675 12.424 13.8579 12.4296 13.642C12.4326 13.4486 12.4355 13.2553 12.4385 13.0561C12.5621 12.5621 12.5621 12.5621 13.0009 12.2047C13.4992 11.9999 13.4992 11.9999 14.1083 12.1404C14.6238 12.3747 14.6238 12.3747 14.8112 12.5621C14.8408 12.9092 14.8582 13.2573 14.8705 13.6054C14.8783 13.8162 14.8862 14.027 14.8943 14.2442C14.9016 14.4661 14.909 14.688 14.9166 14.9166C14.9247 15.1392 14.9328 15.3619 14.9411 15.5912C14.9611 16.1433 14.9799 16.6955 14.9986 17.2476C15.7408 17.2476 16.483 17.2476 17.2476 17.2476C17.2578 16.6268 17.2652 16.0061 17.2711 15.3851C17.2742 15.2116 17.2773 15.038 17.2806 14.8591C17.2902 13.4946 17.2955 12.074 16.4042 10.9691C15.7648 10.3297 15.4487 10.2772 14.5652 10.2545C13.8149 10.2575 13.5539 10.2788 12.9018 10.6879C12.7897 10.8116 12.6776 10.9353 12.5621 11.0628C12.5003 10.7535 12.4384 10.4443 12.3747 10.1257C11.6325 10.1257 10.8903 10.1257 10.1257 10.1257Z" fill="black"/>
</svg>
