<svg width="24" height="24" viewBox="0 0 24 24" fill="none" xmlns="http://www.w3.org/2000/svg">
<path d="M6.76789 4.03889C6.95044 4.03749 6.95044 4.03749 7.13667 4.03606C7.54004 4.0333 7.94339 4.03202 8.34676 4.03098C8.62707 4.02989 8.90737 4.02881 9.18767 4.02772C9.77593 4.02574 10.3642 4.02464 10.9524 4.02398C11.7053 4.02295 12.4581 4.01842 13.211 4.01306C13.7903 4.00954 14.3696 4.00857 14.9489 4.00828C15.2264 4.00771 15.5039 4.0062 15.7813 4.00372C16.1702 4.0005 16.5589 4.00086 16.9478 4.00208C17.1689 4.00139 17.39 4.00071 17.6178 4C18.5018 4.10375 19.1486 4.51963 19.7156 5.20003C19.9242 5.82577 19.9305 6.29723 19.9344 6.95647C19.9362 7.20241 19.9381 7.44836 19.9399 7.70175C19.9408 7.97064 19.9416 8.23954 19.9423 8.50843C19.9434 8.78424 19.9445 9.06005 19.9456 9.33586C19.9476 9.91411 19.9487 10.4924 19.9493 11.0706C19.9504 11.8106 19.9549 12.5505 19.9603 13.2905C19.9638 13.8603 19.9648 14.43 19.965 14.9998C19.9656 15.2725 19.9671 15.5453 19.9696 15.818C19.9728 16.2 19.9721 16.5821 19.9712 16.9641C19.9723 17.2899 19.9723 17.2899 19.9733 17.6222C19.8621 18.5566 19.5363 18.9836 18.8164 19.5761C18.1319 19.9406 17.7232 19.9945 16.9527 19.9946C16.7068 19.9964 16.4609 19.9982 16.2075 20C15.9416 19.998 15.6756 19.9959 15.4097 19.9936C15.1347 19.9936 14.8597 19.9939 14.5847 19.9944C14.0098 19.9947 13.4349 19.9923 12.8601 19.988C12.1245 19.9827 11.3891 19.9832 10.6535 19.9856C10.0862 19.9869 9.51888 19.9854 8.95154 19.9831C8.68037 19.9822 8.40919 19.9822 8.13802 19.9829C7.75876 19.9835 7.37949 19.9799 7.00024 19.9762C6.78478 19.9752 6.56931 19.9742 6.34732 19.9732C5.46933 19.8622 5.01621 19.5231 4.39774 18.9071C3.99648 18.2707 3.97558 17.8792 3.96971 17.1299C3.96778 17.0069 3.96586 16.8839 3.96387 16.7572C3.95865 16.3525 3.95899 15.9481 3.95986 15.5434C3.9584 15.2606 3.95676 14.9777 3.95497 14.6949C3.95216 14.1027 3.95226 13.5106 3.95425 12.9184C3.95643 12.1619 3.95006 11.4057 3.9413 10.6493C3.93573 10.0652 3.93542 9.4813 3.9366 8.89725C3.9364 8.6185 3.93444 8.33973 3.93064 8.061C3.90132 5.6146 3.90132 5.6146 4.62362 4.74793C5.32452 4.08404 5.80755 4.04449 6.76789 4.03889ZM7.65402 7.46158C8.23728 8.40793 8.81944 9.3425 9.49373 10.2267C9.62478 10.4006 9.62478 10.4006 9.75848 10.5781C9.932 10.8066 10.1083 11.033 10.2876 11.2571C10.5288 11.5768 10.5288 11.5768 10.8579 12.1731C10.7199 13.0166 10.1506 13.525 9.57398 14.1284C8.86235 14.8895 8.23138 15.6417 7.65402 16.5078C7.90279 16.5078 8.15156 16.5078 8.40787 16.5078C8.83554 16.0951 8.83554 16.0951 9.23239 15.5537C9.37985 15.3654 9.52732 15.1771 9.67925 14.9831C9.81943 14.8021 9.9596 14.6212 10.104 14.4347C11.1512 13.1572 11.1512 13.1572 11.6117 12.927C11.6806 13.0684 11.6806 13.0684 11.7509 13.2126C11.8293 13.3671 11.9078 13.5216 11.9886 13.6808C12.0422 13.7888 12.0957 13.8968 12.1509 14.0081C12.9075 15.605 12.9075 15.605 14.2383 16.6383C15.0728 16.7549 15.8726 16.6567 16.7002 16.5078C15.5865 14.6921 14.3573 12.963 13.1194 11.2308C13.3741 10.6741 13.6654 10.2441 14.0691 9.78497C14.1784 9.65985 14.2877 9.53474 14.4004 9.40583C14.5141 9.27732 14.6278 9.1488 14.7449 9.01639C14.9176 8.81925 14.9176 8.81925 15.0939 8.61812C15.3773 8.2948 15.6615 7.97214 15.9464 7.65004C15.6976 7.58785 15.4488 7.52566 15.1925 7.46158C15.0766 7.60467 14.9607 7.74776 14.8413 7.89519C14.689 8.0825 14.5367 8.2698 14.3798 8.46279C14.1535 8.74156 14.1535 8.74156 13.9226 9.02596C13.4963 9.53466 13.4963 9.53466 13.1584 9.86079C12.8877 10.0906 12.8877 10.0906 12.931 10.477C12.2134 10.2378 12.1348 9.9055 11.7891 9.26637C11.1688 8.07604 11.1688 8.07604 10.1167 7.32851C9.28263 7.21263 8.48104 7.31272 7.65402 7.46158Z" fill="black"/>
<path d="M7.91992 7.20003C8.62546 7.12513 9.15242 7.07526 9.83992 7.20003C10.3724 7.7094 10.6858 8.09231 11.0699 8.70003C11.1771 8.85762 11.2843 9.01521 11.3948 9.17757C11.6309 9.52494 11.8644 9.87406 12.0958 10.2246C12.5106 10.8459 12.9387 11.4562 13.3705 12.0657C15.8746 15.6007 15.8746 15.6007 16.5599 16.8C15.8577 16.8722 15.325 16.9206 14.6399 16.8C14.1152 16.3058 13.8152 15.9394 13.4399 15.345C13.3343 15.1898 13.2287 15.0346 13.1199 14.8747C12.8804 14.5224 12.6436 14.1682 12.4089 13.8127C11.9447 13.1173 11.4663 12.4329 10.9855 11.7488C10.2981 10.7701 9.61192 9.79072 8.93055 8.80784C8.78773 8.60201 8.64492 8.39618 8.49777 8.18411C8.15992 7.68003 8.15992 7.68003 7.91992 7.20003Z" fill="black"/>
</svg>
